#!OML:ASF E:/inclinewalkrobotboard/Project1/Captureday1/Session1/subject1.ASF
:FULLY-SPECIFIED
:DEGREES
263
root 0 0 0 1.8363495861115426 -9.057174180125191 1.3509323219099776
lowerback 1.0177541552016454 -1.512038988690134 -3.23906335381167
upperback -0.8019647198589896 -1.9270592127895512 2.361622085982544
thorax -1.146293067737873 -0.9340434441380941 4.232246752147943
lowerneck -29.778982007057866 -2.262801497223962 -7.475989211655566
upperneck 7.205980299946063 -1.1181044391078774 5.491664152011385
head 6.777977980733931 -0.11118207115336504 2.85526221282667
rclavicle -1.54290047634938E-15 -1.5850897334855022E-15
rhumerus -32.55723700095492 -5.239761007538123 -80.13385148781398
rradius 29.925216643898708
rwrist 18.581332422655592
rhand -17.57813459819534 9.89517148618207
rfingers 7.125019999999944
rthumb 8.672710499367755 -19.939059316423837
lclavicle -1.2651359781259929E-15 -1.0155643572954496E-15
lhumerus -9.467670332499974 7.687181330805056 88.5955765132159
lradius 61.48622777955449
lwrist -4.9031580199480675
lhand -33.631348303499024 17.7908835859999
lfingers 7.125020000000006
lthumb -6.820688345963547 47.43179719179407
rfemur -31.727912424189462 2.232316313240821 18.712643877896628
rtibia 38.5474521110594
rfoot -6.595392766645015 -11.69896527712849
rtoes -4.952680440281034
lfemur 7.11351616345582 -2.5225260244242462 -30.350279281472833
ltibia 22.366373341630137
lfoot -17.83182041430655 -1.8985668775633608
ltoes 0.5901181853058741
264
root 0 0 0 1.9296382012390008 -9.158433467733484 1.439121327666655
lowerback 0.9510681329220856 -1.5788916352284454 -3.2780216905913
upperback -0.7166561417103237 -2.025127517814841 2.391553920582247
thorax -1.0174644496288168 -0.9836056993210541 4.281257978724214
lowerneck -30.590143043167792 -2.3313245798927067 -7.495831959103118
upperneck 6.244637501745718 -1.1637533248716847 5.599861936473735
head 6.5504470230438265 -0.08699358219832563 2.873650230643703
rclavicle -5.695419293148049E-16 -2.3027872701518958E-15
rhumerus -32.52931048067189 -5.075335079618921 -80.06429203230496
rradius 29.886366890865105
rwrist 18.498531891750456
rhand -17.62078801272975 9.96906793777808
rfingers 7.125019999999943
rthumb 8.630586249715401 -19.875729342889723
lclavicle -5.91651518322496E-16 -1.344706322538556E-15
lhumerus -9.906869778346456 7.232979952677648 88.70849974597412
lradius 61.496290763555564
lwrist -4.660029655645305
lhand -33.47297509952925 17.92664144706329
lfingers 7.1250200000000055
lthumb -6.665536985402024 47.57890841943776
rfemur -33.340222259851735 3.555215751666946 17.91781730448708
rtibia 29.273575437975488
rfoot -6.3331097485711405 -12.53078366526989
rtoes -6.639588229513919
lfemur 12.627097081857674 -3.2162696835424747 -30.135151077320046
ltibia 20.309501128895764
lfoot -15.97379905020214 -3.7894369318385706
ltoes -4.630970524416961
265
root 0 0 0 2.047540603535039 -9.295344466374631 1.5528603250455215
lowerback 0.8505278428871432 -1.6604135116686374 -3.3347326065679694
upperback -0.6274302401425268 -2.145268122759952 2.4313535879854955
thorax -0.8637115358171987 -1.0442948519082549 4.349796785936668
lowerneck -31.552514491924107 -2.3958461889671256 -7.528969273504209
upperneck 5.118090652126872 -1.1910413053535618 5.727130435179184
head 6.286699656699186 -0.04839159969453355 2.9010388442509156
rclavicle -2.027090671713649E-16 -3.101126132583109E-15
rhumerus -32.573062292922785 -4.961059472630138 -79.97520006078489
rradius 29.835591927677317
rwrist 18.549170415272826
rhand -17.62891916361263 9.948277295119231
rfingers 7.125019999999944
rthumb 8.621413228322801 -19.911570245530967
lclavicle -4.557653482804719E-16 -1.604184753107762E-15
lhumerus -9.821242820327871 6.975165399150071 88.50265432163116
lradius 61.70460291201749
lwrist -4.584901173838869
lhand -33.44397555733548 18.008668434791954
lfingers 7.125020000000005
lthumb -6.6334826231253485 47.66645360004003
rfemur -34.28187763024382 4.27932505720781 17.516512524377433
rtibia 24.801552672954564
rfoot -5.797081239210865 -12.615434740291015
rtoes -6.733004407246154
lfemur 18.12022574450377 -3.6573301226347823 -29.252784201885852
ltibia 22.341880548875558
lfoot -12.012068826035602 -6.989947845051708
ltoes -10.398669950943722
266
root 0 0 0 2.1472366241700227 -9.408994190965556 1.649561033008164
lowerback 0.769154998034729 -1.7255858347638295 -3.3842646461341843
upperback -0.5601784493980695 -2.2416254762203094 2.4685302095072608
thorax -0.7433446319732437 -1.0939124490444905 4.412214903189785
lowerneck -32.30503723169743 -2.426156533271956 -7.554014708118359
upperneck 4.23060620324922 -1.1837576112869967 5.822773789651045
head 6.077340377099411 -0.006275741641159363 2.925587455600083
rclavicle -1.072551801071655E-15 -3.8214344397658655E-15
rhumerus -32.68246745267482 -5.000527486633278 -79.89150673395196
rradius 29.779993222445924
rwrist 18.709649594355202
rhand -17.588651124723622 9.85039085030318
rfingers 7.125019999999947
rthumb 8.658987913693641 -20.024125111641464
lclavicle -1.0025058306584024E-15 -1.7627895685583098E-15
lhumerus -9.255106265649742 7.025863515793868 88.05056477150686
lradius 61.99725554849754
lwrist -4.697411331270218
lhand -33.54502555179344 18.005909561353402
lfingers 7.125020000000004
lthumb -6.726806347295296 47.6615321113456
rfemur -34.59683745197878 4.728926631533877 17.815715246584194
rtibia 22.85768046305111
rfoot -5.091763909562253 -12.324695340392832
rtoes -5.267697397543252
lfemur 20.194149279272096 -3.010866757934444 -27.440076944635805
ltibia 29.97467441614013
lfoot -6.837666809181124 -10.660500874058735
ltoes -15.290482598122082
267
root 0 0 0 2.184482835715068 -9.458006351166528 1.6888453225010853
lowerback 0.7563959643074352 -1.7557593055299847 -3.394222267211345
upperback -0.5220722743546562 -2.285921380435698 2.48706457031094
thorax -0.6952185383742306 -1.117835851871857 4.4334546000108315
lowerneck -32.648457810668944 -2.428611618954485 -7.5402046337510535
upperneck 3.8574877706092945 -1.1613145371061917 5.830050955171295
head 5.991217998804329 0.017650064313898692 2.923343899492486
rclavicle -2.405220258401058E-15 -4.2206522806344714E-15
rhumerus -32.798606820026585 -5.169121253696077 -79.84949382424746
rradius 29.7437113878153
rwrist 18.883129425400362
rhand -17.523874340579688 9.73710562198459
rfingers 7.1250199999999495
rthumb 8.720732691150594 -20.14950350840661
lclavicle -1.2467914656097507E-15 -1.8953288401476402E-15
lhumerus -8.85393635216182 7.3308701879996745 87.79906828122127
lradius 62.040023693981446
lwrist -4.855347384441826
lhand -33.64109199838709 17.925545543806255
lfingers 7.125020000000004
lthumb -6.818006432996899 47.57632841472946
rfemur -33.7070738155952 5.4561268841276185 19.856356612801402
rtibia 20.787567431871135
rfoot -4.399941859342217 -11.658310140581438
rtoes -0.9336180954443831
lfemur 15.74739826197945 -1.8791329554657734 -23.8337435705633
ltibia 39.30393675376743
lfoot 0.34900774058012374 -14.076877097461095
ltoes -17.234543947827795
268
root 0 0 0 2.137110202681365 -9.435716428255434 1.6552518740259579
lowerback 0.8361496938956803 -1.7501516009285347 -3.3431583201219848
upperback -0.5067953754904765 -2.276085015474388 2.4789612876109537
thorax -0.7286914284274137 -1.1142539285448985 4.39255926462322
lowerneck -32.58332260369835 -2.4186408688104395 -7.461774107793589
upperneck 4.06925214800661 -1.1385009539171849 5.70608846554794
head 6.0529328154943 0.011368611029399248 2.872743280915341
rclavicle -3.213202957361692E-15 -4.244888069982803E-15
rhumerus -32.88297344299111 -5.429417061168659 -79.87129871213462
rradius 29.742504976328874
rwrist 19.014128305219266
rhand -17.453142947581842 9.644077890392598
rfingers 7.125019999999951
rthumb 8.789003887831914 -20.248552757355164
lclavicle -7.021586992666842E-16 -2.06321016968877E-15
lhumerus -9.23312963860147 7.842630980863205 88.17714333943746
lradius 61.52273339353088
lwrist -4.940302870815866
lhand -33.61736023655793 17.75234817514015
lfingers 7.1250200000000055
lthumb -6.796399744607862 47.40045185894128
rfemur -26.891569048351435 6.645545339520367 25.89270702935642
rtibia 19.563673826559242
rfoot -4.483359045887022 -10.007743345340923
rtoes 6.186244222359081
lfemur 6.533794027032124 -0.9609600786507728 -19.791959678132937
ltibia 46.98176455916297
lfoot 7.150986713619565 -15.821644893222706
ltoes -14.695816496358724
269
root 0 0 0 2.011280878971525 -9.357270633798922 1.5551654823540404
lowerback 0.9829871295400401 -1.708382896892127 -3.2424061764870347
upperback -0.5311859875908357 -2.211525642553506 2.4458186833105464
thorax -0.8450624711004394 -1.082521152542928 4.299801912776948
lowerneck -32.07849589642491 -2.382638912327513 -7.337240935912376
upperneck 4.902402743385487 -1.0957010748788178 5.456702028541688
head 6.275078286754827 -0.019069277714236 2.7823828128390375
rclavicle -3.684798806883878E-15 -3.886651918665365E-15
rhumerus -32.92126922174804 -5.688503229905112 -79.96178587655882
rradius 29.78645707801311
rwrist 19.116063332152525
rhand -17.391810815268133 9.557737247865525
rfingers 7.125019999999953
rthumb 8.8495268581883 -20.3227200505979
lclavicle -4.3411360009295307E-16 -2.0603286821470667E-15
lhumerus -9.757077931650556 8.579264431423113 88.77773050210484
lradius 60.81543230868789
lwrist -5.086015333468488
lhand -33.6111667494939 17.49184484051201
lfingers 7.125020000000008
lthumb -6.792720124255884 47.13368591848173
rfemur -15.381152808453106 7.391564165620782 32.727825137202686
rtibia 23.335635213841215
rfoot -5.2597304507616585 -7.603828450447942
rtoes 12.45701603245312
lfemur -2.9110332159167758 -0.15330097837107348 -17.476063316776543
ltibia 52.772960283278444
lfoot 8.780114532207074 -14.644404271684008
ltoes -9.770365724863922
